<svg xmlns="http://www.w3.org/2000/svg" width="7.96cm" height="3.6cm" viewBox="0 0 225.67 102.16"><path d="M41.89,168.93a3.17,3.17,0,0,1-2.52-1.06,4.42,4.42,0,0,1-.94-3V136.57a1.3,1.3,0,0,1,.32-.95,1.1,1.1,0,0,1,.82-.32,1.39,1.39,0,0,1,.73.16,1.45,1.45,0,0,1,.41.34,11.79,11.79,0,0,0-.27,2.82q0,2.15,0,6.1l0,20.12a2.88,2.88,0,0,0,.47,1.8,1.61,1.61,0,0,0,1.35.61A2.29,2.29,0,0,0,43.3,167a1.67,1.67,0,0,0,.78-.84,1.88,1.88,0,0,1,.36.57,1.46,1.46,0,0,1,.09.52,1.42,1.42,0,0,1-.79,1.25A3.51,3.51,0,0,1,41.89,168.93Z" transform="translate(-38.43 -76.52)" fill="#1d1d1b"/><path d="M48.72,135.25a3.5,3.5,0,0,1,1,.14l-.41,5.73H48.13l-.41-5.73A3.5,3.5,0,0,1,48.72,135.25Z" transform="translate(-38.43 -76.52)" fill="#1d1d1b"/><path d="M57.32,141a2.49,2.49,0,0,1-2.46-2.45,2.38,2.38,0,0,1,.73-1.76,2.46,2.46,0,0,1,3.49,3.48A2.34,2.34,0,0,1,57.32,141Zm2,22.26c0,.89,0,1.75.11,2.6a8.43,8.43,0,0,0,.48,2.27,5.06,5.06,0,0,1-.8.52,2.58,2.58,0,0,1-1.3.3,2.07,2.07,0,0,1-1.45-.54,1.88,1.88,0,0,1-.59-1.46l-.05-16.53c0-.87,0-1.74-.11-2.59a9.28,9.28,0,0,0-.48-2.27,4.84,4.84,0,0,1,.79-.53,2.72,2.72,0,0,1,1.3-.29,2.09,2.09,0,0,1,1.48.52,1.91,1.91,0,0,1,.57,1.48Z" transform="translate(-38.43 -76.52)" fill="#1d1d1b"/><path d="M69.7,169a2.1,2.1,0,0,1-1.54-.59,2.12,2.12,0,0,1-.6-1.59V150a4.77,4.77,0,0,0-.31-1.84,1,1,0,0,0-1-.52,1.76,1.76,0,0,0-.59.13,1.09,1.09,0,0,0-.59.59,2.25,2.25,0,0,1-.55-1.45,1.86,1.86,0,0,1,.73-1.51,3.1,3.1,0,0,1,2-.59A3.17,3.17,0,0,1,69.93,146a5.67,5.67,0,0,1,.91,3.53v3.19l-.68.82a11.59,11.59,0,0,1,1.39-4.69,7.69,7.69,0,0,1,3-3,8.22,8.22,0,0,1,4.16-1q3.78,0,5.55,2.41t1.78,7v9.06c0,.79.08,1.64.16,2.53a10.52,10.52,0,0,0,.43,2.34,3.89,3.89,0,0,1-.86.57,2.73,2.73,0,0,1-1.23.25,2.24,2.24,0,0,1-1.53-.54,1.86,1.86,0,0,1-.61-1.46V154.69a13.4,13.4,0,0,0-1.07-5.81,3.78,3.78,0,0,0-3.67-2,5.1,5.1,0,0,0-2.25.54,6,6,0,0,0-2.07,1.8,10,10,0,0,0-1.55,3.3,18.22,18.22,0,0,0-.59,5c0,1.82,0,3.33,0,4.51s0,2.16.07,2.91a13.61,13.61,0,0,0,.18,1.87,8.69,8.69,0,0,0,.37,1.36,5.58,5.58,0,0,1-.8.52A2.58,2.58,0,0,1,69.7,169Z" transform="translate(-38.43 -76.52)" fill="#1d1d1b"/><path d="M99.7,169.08a13.09,13.09,0,0,1-4.85-.76,5.8,5.8,0,0,1-2.75-2,4.71,4.71,0,0,1-.87-2.76,3.53,3.53,0,0,1,.28-1.4,1.94,1.94,0,0,1,.93-1,2.82,2.82,0,0,1,1.8-.11,3.64,3.64,0,0,0-.16.89,4.76,4.76,0,0,0,.07,1,4.06,4.06,0,0,0,1.64,3.19,6.79,6.79,0,0,0,4.23,1.18,8.19,8.19,0,0,0,4.1-.91,2.91,2.91,0,0,0,1.59-2.68,3.1,3.1,0,0,0-.93-2.35,9.26,9.26,0,0,0-2.39-1.57c-1-.45-2-.94-3-1.45s-2.33-1.14-3.42-1.76a8.76,8.76,0,0,1-2.7-2.34,5.89,5.89,0,0,1-1.07-3.68,5,5,0,0,1,1.13-3.4,6.59,6.59,0,0,1,3-1.89,13.44,13.44,0,0,1,4-.59,11.73,11.73,0,0,1,5.82,1.21,3.71,3.71,0,0,1,2.1,3.35,2.48,2.48,0,0,1-.37,1.36,1.76,1.76,0,0,1-1.32.73,1.94,1.94,0,0,1-.63.07l-.68-.07a5.05,5.05,0,0,0,.08-1,4.2,4.2,0,0,0-1.63-3.21,7,7,0,0,0-3.51-.78,8.47,8.47,0,0,0-2.3.3,3.67,3.67,0,0,0-1.73,1,2.6,2.6,0,0,0-.66,1.85,3.78,3.78,0,0,0,.82,2.48,7.07,7.07,0,0,0,2.19,1.68c.91.47,1.86.95,2.87,1.44s1.82.85,2.73,1.29a17.28,17.28,0,0,1,2.52,1.5,7.06,7.06,0,0,1,1.85,1.94,5,5,0,0,1,.68,2.68,6.13,6.13,0,0,1-.84,3,6.28,6.28,0,0,1-2.92,2.5A13.28,13.28,0,0,1,99.7,169.08Z" transform="translate(-38.43 -76.52)" fill="#1d1d1b"/><path d="M126.56,144.77a7,7,0,0,1,4,1,7.07,7.07,0,0,1,2.39,2.7,12.35,12.35,0,0,1,1.16,3.6,23.16,23.16,0,0,1,.32,3.71q0,6.28-2.53,9.76a8.24,8.24,0,0,1-7.07,3.49,7.57,7.57,0,0,1-3.94-1,5.27,5.27,0,0,1-2.3-2.69V171c0,.63,0,1.37,0,2.22s.1,1.7.21,2.53.22,1.54.34,2.12a5.89,5.89,0,0,1-.8.52,2.54,2.54,0,0,1-1.29.3,2.32,2.32,0,0,1-1.53-.52,1.85,1.85,0,0,1-.61-1.49l0-26.58a4.27,4.27,0,0,0-.27-1.8,1,1,0,0,0-1-.52,2,2,0,0,0-.59.12,1,1,0,0,0-.59.57,3.7,3.7,0,0,1-.41-.78,1.8,1.8,0,0,1,.61-2.16,3.19,3.19,0,0,1,2-.57,3,3,0,0,1,2.82,1.52,8.68,8.68,0,0,1,.87,4.26v4.14l-1,.5a21.26,21.26,0,0,1,1-4.21,11.58,11.58,0,0,1,1.82-3.37,8.29,8.29,0,0,1,2.71-2.23A7.88,7.88,0,0,1,126.56,144.77Zm-.91,2.23a5,5,0,0,0-3,.95,7.86,7.86,0,0,0-2.2,2.62,13.65,13.65,0,0,0-1.37,3.8,21.89,21.89,0,0,0-.46,4.51,20.21,20.21,0,0,0,.23,3.09,8.59,8.59,0,0,0,.82,2.58,4.53,4.53,0,0,0,1.64,1.75,5.15,5.15,0,0,0,2.69.64,5.39,5.39,0,0,0,4.87-2.78q1.68-2.78,1.68-8.29a27.94,27.94,0,0,0-.18-3.14,11.42,11.42,0,0,0-.68-2.86,5.09,5.09,0,0,0-1.46-2.08A3.93,3.93,0,0,0,125.65,147Z" transform="translate(-38.43 -76.52)" fill="#1d1d1b"/><path d="M149.09,169.08A10.14,10.14,0,0,1,141.3,166q-2.87-3.08-2.86-8.94c0-3.8.93-6.79,2.79-9s4.55-3.29,8-3.29a11.5,11.5,0,0,1,4.32.75,6.5,6.5,0,0,1,2.94,2.21,5.92,5.92,0,0,1,1.07,3.59,5.75,5.75,0,0,1-2.75,5.17,14.06,14.06,0,0,1-7.58,1.75c-1.28,0-2.49-.05-3.65-.16a31.15,31.15,0,0,1-3.5-.52l.09-1.51a23.08,23.08,0,0,0,2.66.37c1,.09,2,.15,3,.18a16.23,16.23,0,0,0,3-.27,7.74,7.74,0,0,0,2.53-.91,4.45,4.45,0,0,0,1.71-1.76,5.82,5.82,0,0,0,.61-2.79,4.66,4.66,0,0,0-.68-2.73,3.72,3.72,0,0,0-1.73-1.35,6.47,6.47,0,0,0-2.19-.39,5.86,5.86,0,0,0-4.94,2.58q-1.89,2.57-1.89,7.62a14.14,14.14,0,0,0,1,5.94,6.54,6.54,0,0,0,2.75,3.1,8.08,8.08,0,0,0,3.87.93,8.91,8.91,0,0,0,4.33-1,5.19,5.19,0,0,0,2.5-2.94,1.19,1.19,0,0,1,.66.66,2.35,2.35,0,0,1-.25,1.61,6.07,6.07,0,0,1-3.05,3.13A11.4,11.4,0,0,1,149.09,169.08Z" transform="translate(-38.43 -76.52)" fill="#1d1d1b"/><path d="M172.25,169.08a10,10,0,0,1-7.76-3.08q-2.79-3.08-2.79-8.94c0-3.8.94-6.79,2.84-9s4.57-3.29,8-3.29a8.91,8.91,0,0,1,5.76,1.61,5.14,5.14,0,0,1,2,4.17,3.78,3.78,0,0,1-.82,2.55,2.75,2.75,0,0,1-2.19,1,4,4,0,0,1-1.17-.18,1.86,1.86,0,0,1-1-.68,2.08,2.08,0,0,0,1.14-1.1,4.11,4.11,0,0,0,.37-1.82,3.84,3.84,0,0,0-.61-2.23,3.64,3.64,0,0,0-1.62-1.27,5.81,5.81,0,0,0-2.19-.41,5.71,5.71,0,0,0-4.82,2.57c-1.25,1.72-1.87,4.24-1.87,7.58a14,14,0,0,0,1.05,5.92,6.79,6.79,0,0,0,2.78,3.19,7.81,7.81,0,0,0,3.82.95,8.25,8.25,0,0,0,3-.52,6.12,6.12,0,0,0,2.35-1.6,5.74,5.74,0,0,0,1.34-2.66,1.09,1.09,0,0,1,.64.7,2.94,2.94,0,0,1-.18,1.67,6.12,6.12,0,0,1-2.91,3.66A10.27,10.27,0,0,1,172.25,169.08Z" transform="translate(-38.43 -76.52)" fill="#1d1d1b"/><path d="M183.64,147.45l0-1a1.06,1.06,0,0,1,.34-.75,1,1,0,0,1,.66-.25h7.83c.12,0,.37,0,.73,0l1.21,0,1.2-.05.73,0,0,1a1.21,1.21,0,0,1-.32.77.94.94,0,0,1-.68.28h-9c-.3,0-.75,0-1.36,0A8.07,8.07,0,0,0,183.64,147.45Zm8,21.53a4.34,4.34,0,0,1-3.39-1.34,5.38,5.38,0,0,1-1.2-3.71V141.35a1.83,1.83,0,0,1,.59-1.47,2.22,2.22,0,0,1,1.55-.53,2.52,2.52,0,0,1,1.31.3,5.21,5.21,0,0,1,.78.52,12.72,12.72,0,0,0-.5,3.32c-.06,1.37-.1,3.22-.1,5.56V163.7a2.76,2.76,0,0,0,.55,1.8,2,2,0,0,0,1.64.66,3.56,3.56,0,0,0,1.27-.23,1.38,1.38,0,0,0,.87-.73,2.7,2.7,0,0,1,.39.75,2.86,2.86,0,0,1,.11.71,1.9,1.9,0,0,1-1.09,1.66A5.3,5.3,0,0,1,191.6,169Z" transform="translate(-38.43 -76.52)" fill="#1d1d1b"/><path d="M209.54,169.08a10.15,10.15,0,0,1-7.79-3.08q-2.87-3.08-2.87-8.94c0-3.8.94-6.79,2.8-9s4.55-3.29,8-3.29a11.5,11.5,0,0,1,4.32.75,6.55,6.55,0,0,1,2.94,2.21,5.92,5.92,0,0,1,1.07,3.59,5.74,5.74,0,0,1-2.76,5.17,14,14,0,0,1-7.57,1.75c-1.28,0-2.49-.05-3.65-.16a31.15,31.15,0,0,1-3.5-.52l.09-1.51a22.77,22.77,0,0,0,2.66.37c1,.09,2,.15,3,.18a16.34,16.34,0,0,0,3-.27,7.6,7.6,0,0,0,2.52-.91,4.55,4.55,0,0,0,1.72-1.76,5.82,5.82,0,0,0,.61-2.79,4.58,4.58,0,0,0-.69-2.73,3.62,3.62,0,0,0-1.73-1.35,6.37,6.37,0,0,0-2.18-.39,5.86,5.86,0,0,0-4.94,2.58q-1.89,2.57-1.89,7.62a14.32,14.32,0,0,0,1,5.94,6.61,6.61,0,0,0,2.76,3.1,8,8,0,0,0,3.87.93,8.84,8.84,0,0,0,4.32-1,5.17,5.17,0,0,0,2.51-2.94,1.19,1.19,0,0,1,.66.66,2.41,2.41,0,0,1-.25,1.61,6.11,6.11,0,0,1-3,3.13A11.4,11.4,0,0,1,209.54,169.08Z" transform="translate(-38.43 -76.52)" fill="#1d1d1b"/><path d="M239.26,144.77a2.09,2.09,0,0,1,1.5.57,2.14,2.14,0,0,1,.59,1.61l.05,16.84a3.86,3.86,0,0,0,.3,1.8,1,1,0,0,0,1,.53,1.82,1.82,0,0,0,.59-.14,1.17,1.17,0,0,0,.6-.55,2.27,2.27,0,0,1,.54,1.41,1.9,1.9,0,0,1-.71,1.51,3.08,3.08,0,0,1-2,.58,3.17,3.17,0,0,1-2.64-1.15,5.58,5.58,0,0,1-.91-3.48v-3.24l.68-.81a11.89,11.89,0,0,1-1.38,4.73,8.29,8.29,0,0,1-2.9,3,7.7,7.7,0,0,1-4.05,1.07c-2.43,0-4.22-.72-5.37-2.14s-1.74-3.9-1.78-7.43v-9c0-.82,0-1.67-.1-2.55a9.46,9.46,0,0,0-.49-2.36c.28-.19.57-.37.89-.55a2.55,2.55,0,0,1,1.25-.27,2.07,2.07,0,0,1,1.48.52,2,2,0,0,1,.57,1.53l.05,12.24a20.14,20.14,0,0,0,.43,4.64,4.5,4.5,0,0,0,1.44,2.57,4.12,4.12,0,0,0,2.68.8,4.65,4.65,0,0,0,2.19-.59,6.28,6.28,0,0,0,2-1.87,10.27,10.27,0,0,0,1.5-3.34,19.2,19.2,0,0,0,.57-5c0-1.82,0-3.33,0-4.51s0-2.15-.07-2.89a14.11,14.11,0,0,0-.18-1.87,8.67,8.67,0,0,0-.36-1.38,4.84,4.84,0,0,1,.79-.53A2.69,2.69,0,0,1,239.26,144.77Z" transform="translate(-38.43 -76.52)" fill="#1d1d1b"/><path d="M251.68,168.89a2.09,2.09,0,0,1-1.45-.57,2,2,0,0,1-.64-1.57V150a4,4,0,0,0-.3-1.84,1,1,0,0,0-1-.52,1.76,1.76,0,0,0-.59.13,1.13,1.13,0,0,0-.59.59,2.29,2.29,0,0,1-.54-1.45,1.88,1.88,0,0,1,.72-1.51,3.11,3.11,0,0,1,2-.59A3.07,3.07,0,0,1,252,146a6.07,6.07,0,0,1,.87,3.74v3h-.55a11,11,0,0,1,2.19-6,5.53,5.53,0,0,1,4.41-2,5.65,5.65,0,0,1,3.78,1.23,4.34,4.34,0,0,1,1.46,3.5,3.69,3.69,0,0,1-.82,2.46,2.6,2.6,0,0,1-1.87,1,2.05,2.05,0,0,1-1.59-.45,5.27,5.27,0,0,0,.7-1.53,5.69,5.69,0,0,0,.16-1.39,3,3,0,0,0-.68-2.14,2.67,2.67,0,0,0-2-.68,3.38,3.38,0,0,0-2.34,1,7.32,7.32,0,0,0-1.8,3.39,23.52,23.52,0,0,0-.68,6.3V162c0,1.19,0,2.15.06,2.89s.11,1.36.19,1.85a7.12,7.12,0,0,0,.34,1.36,3,3,0,0,1-.8.55A2.93,2.93,0,0,1,251.68,168.89Z" transform="translate(-38.43 -76.52)" fill="#1d1d1b"/><path d="M163,85.44c6-2,12.06-1.28,17.92,0,22.13,4.93,37.65,17.51,48.79,35a10.16,10.16,0,0,1,.83,1.84,1.85,1.85,0,0,1-.08,1.69c-1.25-1.69-2.54-3.36-3.73-5.08A78.47,78.47,0,0,0,197.62,93a66.47,66.47,0,0,0-29.41-7.33C166.48,85.63,164.74,85.52,163,85.44Z" transform="translate(-38.43 -76.52)"/><path d="M163.36,82.77c13.92-10.08,57.91-4.19,69.78,9.32-1.83-.94-3.71-1.81-5.49-2.83-17.57-10.06-36.49-12.19-56.53-7.91C168.74,81.86,166.34,82.23,163.36,82.77Z" transform="translate(-38.43 -76.52)"/><path d="M163.35,88.27c12.2-.48,29.65,13.29,30.78,25C188,100.74,178.09,92.11,163.35,88.27Z" transform="translate(-38.43 -76.52)"/><path d="M135.82,85.52c-6-2-12.07-1.28-17.92,0-22.13,4.94-37.65,17.52-48.8,35a10.12,10.12,0,0,0-.82,1.84,1.85,1.85,0,0,0,.08,1.69c1.24-1.69,2.54-3.36,3.72-5.08a78.51,78.51,0,0,1,29.13-25.91,66.42,66.42,0,0,1,29.4-7.33C132.35,85.7,134.08,85.6,135.82,85.52Z" transform="translate(-38.43 -76.52)"/><path d="M135.47,82.85c-13.93-10.08-57.91-4.19-69.79,9.31,1.83-.93,3.71-1.8,5.49-2.82,17.58-10.06,36.5-12.2,56.54-7.91C130.08,81.94,132.49,82.31,135.47,82.85Z" transform="translate(-38.43 -76.52)"/><path d="M135.48,88.34c-12.2-.47-29.66,13.29-30.79,25C110.79,100.82,120.73,92.19,135.48,88.34Z" transform="translate(-38.43 -76.52)"/><path d="M149.11,94.6c-.42.83-1,2.06-1.61,3.21a17.5,17.5,0,0,1-12,8.56c-1,.21-2.23.51-2.48-1-.22-1.29.87-1.51,1.85-1.7,6.25-1.19,10-5.1,11.92-11a1.89,1.89,0,0,0-.59-2.24,35.72,35.72,0,0,1-4.93-6.75c-1.22-2.24-.26-4.5,2.06-5.65A14.94,14.94,0,0,1,156,77.79c2,.83,2.73,2.57,2.12,4.78a13.79,13.79,0,0,1-5.31,8,1.69,1.69,0,0,0-.7,2.38c2,5.71,5.61,9.54,11.7,10.73.06,0,.14,0,.18,0,.64.57,1.85,1.2,1.8,1.71-.12,1.42-1.51,1.31-2.41.93-2.69-1.13-5.7-2-7.85-3.8C153,100.39,151.24,97.32,149.11,94.6Z" transform="translate(-38.43 -76.52)"/></svg>