<svg xmlns="http://www.w3.org/2000/svg" width="7.96cm" height="3.6cm" viewBox="0 0 225.67 102.16"><path d="M44.08,166.12a1.67,1.67,0,0,1-.78.84,2.29,2.29,0,0,1-1.13.29,1.61,1.61,0,0,1-1.35-.61,2.88,2.88,0,0,1-.47-1.8l0-20.12q0-4,0-6.1a11.79,11.79,0,0,1,.27-2.82,1.45,1.45,0,0,0-.41-.34,1.39,1.39,0,0,0-.73-.16,1.1,1.1,0,0,0-.82.32,1.3,1.3,0,0,0-.32.95v28.27a4.42,4.42,0,0,0,.94,3,3.17,3.17,0,0,0,2.52,1.06,3.51,3.51,0,0,0,1.85-.47,1.42,1.42,0,0,0,.79-1.25,1.46,1.46,0,0,0-.09-.52A1.88,1.88,0,0,0,44.08,166.12Z" transform="translate(-38.43 -76.52)"/><path d="M47.72,135.39l.41,5.73h1.18l.41-5.73a3.64,3.64,0,0,0-2,0Z" transform="translate(-38.43 -76.52)"/><path d="M59.33,163.29l0-16.52a1.91,1.91,0,0,0-.57-1.48,2.09,2.09,0,0,0-1.48-.52,2.72,2.72,0,0,0-1.3.29,4.84,4.84,0,0,0-.79.53,9.28,9.28,0,0,1,.48,2.27c.07.85.11,1.72.11,2.59L55.78,167a1.88,1.88,0,0,0,.59,1.46,2.07,2.07,0,0,0,1.45.54,2.58,2.58,0,0,0,1.3-.3,5.06,5.06,0,0,0,.8-.52,8.43,8.43,0,0,1-.48-2.27C59.36,165,59.33,164.18,59.33,163.29Z" transform="translate(-38.43 -76.52)"/><path d="M57.32,141a2.34,2.34,0,0,0,1.76-.73,2.48,2.48,0,1,0-3.49,0A2.35,2.35,0,0,0,57.32,141Z" transform="translate(-38.43 -76.52)"/><path d="M86,163.29v-9.06q0-4.64-1.78-7t-5.55-2.41a8.22,8.22,0,0,0-4.16,1,7.69,7.69,0,0,0-3,3,9.58,9.58,0,0,0-.71,1.59v-.91a5.67,5.67,0,0,0-.91-3.53,3.17,3.17,0,0,0-2.64-1.16,3.1,3.1,0,0,0-2,.59,1.86,1.86,0,0,0-.73,1.51,2.25,2.25,0,0,0,.55,1.45,1.09,1.09,0,0,1,.59-.59,1.76,1.76,0,0,1,.59-.13,1,1,0,0,1,1,.52,4.77,4.77,0,0,1,.31,1.84v16.8a2.12,2.12,0,0,0,.6,1.59,2.1,2.1,0,0,0,1.54.59,2.58,2.58,0,0,0,1.3-.3,5.58,5.58,0,0,0,.8-.52,8.69,8.69,0,0,1-.37-1.36,13.61,13.61,0,0,1-.18-1.87c0-.75,0-1.73-.07-2.91s0-2.69,0-4.51a18.22,18.22,0,0,1,.59-5,10,10,0,0,1,1.55-3.3,6,6,0,0,1,2.07-1.8,5.1,5.1,0,0,1,2.25-.54,3.78,3.78,0,0,1,3.67,2,13.4,13.4,0,0,1,1.07,5.81V167a1.86,1.86,0,0,0,.61,1.46,2.24,2.24,0,0,0,1.53.54,2.73,2.73,0,0,0,1.23-.25,3.89,3.89,0,0,0,.86-.57,10.52,10.52,0,0,1-.43-2.34C86.08,164.93,86,164.08,86,163.29Z" transform="translate(-38.43 -76.52)"/><path d="M106.64,157.94a17.28,17.28,0,0,0-2.52-1.5q-1.37-.66-2.73-1.29c-1-.49-2-1-2.87-1.44A7.07,7.07,0,0,1,96.33,152a3.78,3.78,0,0,1-.82-2.48,2.6,2.6,0,0,1,.66-1.85,3.67,3.67,0,0,1,1.73-1,8.47,8.47,0,0,1,2.3-.3,7,7,0,0,1,3.51.78,4.2,4.2,0,0,1,1.63,3.21,5.05,5.05,0,0,1-.08,1l.68.07a1.94,1.94,0,0,0,.63-.07,1.76,1.76,0,0,0,1.32-.73,2.48,2.48,0,0,0,.37-1.36,3.71,3.71,0,0,0-2.1-3.35,11.73,11.73,0,0,0-5.82-1.21,13.44,13.44,0,0,0-4,.59,6.59,6.59,0,0,0-3,1.89,5,5,0,0,0-1.13,3.4,5.89,5.89,0,0,0,1.07,3.68,8.76,8.76,0,0,0,2.7,2.34c1.09.62,2.23,1.21,3.42,1.76s2.07,1,3,1.45a9.26,9.26,0,0,1,2.39,1.57,3.1,3.1,0,0,1,.93,2.35,2.91,2.91,0,0,1-1.59,2.68,8.19,8.19,0,0,1-4.1.91,6.79,6.79,0,0,1-4.23-1.18A4.06,4.06,0,0,1,94.15,163a4.76,4.76,0,0,1-.07-1,3.64,3.64,0,0,1,.16-.89,2.82,2.82,0,0,0-1.8.11,1.94,1.94,0,0,0-.93,1,3.53,3.53,0,0,0-.28,1.4,4.71,4.71,0,0,0,.87,2.76,5.8,5.8,0,0,0,2.75,2,13.09,13.09,0,0,0,4.85.76,13.28,13.28,0,0,0,5.71-1,6.28,6.28,0,0,0,2.92-2.5,6.13,6.13,0,0,0,.84-3,5,5,0,0,0-.68-2.68A7.06,7.06,0,0,0,106.64,157.94Z" transform="translate(-38.43 -76.52)"/><path d="M133,148.52a7.07,7.07,0,0,0-2.39-2.7,7,7,0,0,0-4-1,7.88,7.88,0,0,0-3.62.79,8.29,8.29,0,0,0-2.71,2.23,11.58,11.58,0,0,0-1.82,3.37v-.43a8.68,8.68,0,0,0-.87-4.26,3,3,0,0,0-2.82-1.52,3.19,3.19,0,0,0-2,.57,1.8,1.8,0,0,0-.61,2.16,3.7,3.7,0,0,0,.41.78,1,1,0,0,1,.59-.57,2,2,0,0,1,.59-.12,1,1,0,0,1,1,.52,4.27,4.27,0,0,1,.27,1.8l0,26.58a1.85,1.85,0,0,0,.61,1.49,2.32,2.32,0,0,0,1.53.52,2.54,2.54,0,0,0,1.29-.3,5.89,5.89,0,0,0,.8-.52c-.12-.58-.24-1.28-.34-2.12s-.17-1.67-.21-2.53,0-1.59,0-2.22v-5.56a5.27,5.27,0,0,0,2.3,2.69,7.57,7.57,0,0,0,3.94,1,8.24,8.24,0,0,0,7.07-3.49q2.53-3.48,2.53-9.76a23.16,23.16,0,0,0-.32-3.71A12.35,12.35,0,0,0,133,148.52Zm-4.07,15.64a5.39,5.39,0,0,1-4.87,2.78,5.15,5.15,0,0,1-2.69-.64,4.53,4.53,0,0,1-1.64-1.75,8.59,8.59,0,0,1-.82-2.58,20.21,20.21,0,0,1-.23-3.09,21.89,21.89,0,0,1,.46-4.51,13.65,13.65,0,0,1,1.37-3.8,7.86,7.86,0,0,1,2.2-2.62,5,5,0,0,1,3-.95,3.93,3.93,0,0,1,2.59.79,5.09,5.09,0,0,1,1.46,2.08,11.42,11.42,0,0,1,.68,2.86,27.94,27.94,0,0,1,.18,3.14Q130.56,161.39,128.88,164.16Z" transform="translate(-38.43 -76.52)"/><path d="M147.27,158.24a14.06,14.06,0,0,0,7.58-1.75,5.75,5.75,0,0,0,2.75-5.17,5.92,5.92,0,0,0-1.07-3.59,6.5,6.5,0,0,0-2.94-2.21,11.5,11.5,0,0,0-4.32-.75q-5.24,0-8,3.29c-1.86,2.21-2.79,5.2-2.79,9s.95,6.89,2.86,8.94a10.14,10.14,0,0,0,7.79,3.08,11.4,11.4,0,0,0,5-1.07,6.07,6.07,0,0,0,3.05-3.13,2.35,2.35,0,0,0,.25-1.61,1.19,1.19,0,0,0-.66-.66,5.19,5.19,0,0,1-2.5,2.94,8.91,8.91,0,0,1-4.33,1,8.08,8.08,0,0,1-3.87-.93,6.54,6.54,0,0,1-2.75-3.1,12.35,12.35,0,0,1-1-4.61l1.27.15C144.78,158.19,146,158.24,147.27,158.24Zm-5-1.88c0-3.25.65-5.71,1.88-7.38a5.86,5.86,0,0,1,4.94-2.58,6.47,6.47,0,0,1,2.19.39,3.72,3.72,0,0,1,1.73,1.35,4.66,4.66,0,0,1,.68,2.73,5.82,5.82,0,0,1-.61,2.79,4.45,4.45,0,0,1-1.71,1.76,7.74,7.74,0,0,1-2.53.91,16.23,16.23,0,0,1-3,.27c-1,0-2-.09-3-.18Z" transform="translate(-38.43 -76.52)"/><path d="M179.9,161.79a5.74,5.74,0,0,1-1.34,2.66,6.12,6.12,0,0,1-2.35,1.6,8.25,8.25,0,0,1-3,.52,7.81,7.81,0,0,1-3.82-.95,6.79,6.79,0,0,1-2.78-3.19,14,14,0,0,1-1.05-5.92c0-3.34.62-5.86,1.87-7.58a5.71,5.71,0,0,1,4.82-2.57,5.81,5.81,0,0,1,2.19.41,3.64,3.64,0,0,1,1.62,1.27,3.84,3.84,0,0,1,.61,2.23,4.11,4.11,0,0,1-.37,1.82,2.08,2.08,0,0,1-1.14,1.1,1.86,1.86,0,0,0,1,.68,4,4,0,0,0,1.17.18,2.75,2.75,0,0,0,2.19-1,3.78,3.78,0,0,0,.82-2.55,5.14,5.14,0,0,0-2-4.17,8.91,8.91,0,0,0-5.76-1.61q-5.19,0-8,3.29c-1.9,2.21-2.84,5.2-2.84,9s.93,6.89,2.79,8.94a10,10,0,0,0,7.76,3.08,10.27,10.27,0,0,0,5.2-1.26,6.12,6.12,0,0,0,2.91-3.66,2.94,2.94,0,0,0,.18-1.67A1.09,1.09,0,0,0,179.9,161.79Z" transform="translate(-38.43 -76.52)"/><path d="M194.45,145.34l-1.21,0c-.36,0-.61,0-.73,0h-1.83c0-.71,0-1.36.06-1.91a12.72,12.72,0,0,1,.5-3.32,5.21,5.21,0,0,0-.78-.52,2.52,2.52,0,0,0-1.31-.3,2.22,2.22,0,0,0-1.55.53,1.83,1.83,0,0,0-.59,1.47v4.05h-2.33a1,1,0,0,0-.66.25,1.06,1.06,0,0,0-.34.75l0,1a8.07,8.07,0,0,1,1.36-.11c.61,0,1.06,0,1.36,0H187v16.61a5.38,5.38,0,0,0,1.2,3.71A4.34,4.34,0,0,0,191.6,169a5.3,5.3,0,0,0,2.78-.66,1.9,1.9,0,0,0,1.09-1.66,2.86,2.86,0,0,0-.11-.71,2.7,2.7,0,0,0-.39-.75,1.38,1.38,0,0,1-.87.73,3.56,3.56,0,0,1-1.27.23,2,2,0,0,1-1.64-.66,2.76,2.76,0,0,1-.55-1.8V149.05c0-.61,0-1.19,0-1.73h4.69A.94.94,0,0,0,196,147a1.21,1.21,0,0,0,.32-.77l0-1-.73,0Z" transform="translate(-38.43 -76.52)"/><path d="M207.72,158.24a14,14,0,0,0,7.57-1.75,5.74,5.74,0,0,0,2.76-5.17,5.92,5.92,0,0,0-1.07-3.59,6.55,6.55,0,0,0-2.94-2.21,11.5,11.5,0,0,0-4.32-.75q-5.24,0-8,3.29c-1.86,2.21-2.8,5.2-2.8,9s1,6.89,2.87,8.94a10.15,10.15,0,0,0,7.79,3.08,11.4,11.4,0,0,0,5.05-1.07,6.11,6.11,0,0,0,3-3.13,2.41,2.41,0,0,0,.25-1.61,1.19,1.19,0,0,0-.66-.66,5.17,5.17,0,0,1-2.51,2.94,8.84,8.84,0,0,1-4.32,1,8,8,0,0,1-3.87-.93,6.61,6.61,0,0,1-2.76-3.1,12.56,12.56,0,0,1-1-4.61l1.27.15C205.23,158.19,206.44,158.24,207.72,158.24Zm-5-1.88c0-3.25.65-5.71,1.88-7.38a5.86,5.86,0,0,1,4.94-2.58,6.37,6.37,0,0,1,2.18.39,3.62,3.62,0,0,1,1.73,1.35,4.58,4.58,0,0,1,.69,2.73,5.82,5.82,0,0,1-.61,2.79,4.55,4.55,0,0,1-1.72,1.76,7.6,7.6,0,0,1-2.52.91,16.34,16.34,0,0,1-3,.27c-1,0-2-.09-3-.18Z" transform="translate(-38.43 -76.52)"/><path d="M243.26,166a1.82,1.82,0,0,1-.59.14,1,1,0,0,1-1-.53,3.86,3.86,0,0,1-.3-1.8L241.35,147a2.14,2.14,0,0,0-.59-1.61,2.09,2.09,0,0,0-1.5-.57,2.69,2.69,0,0,0-1.3.29,4.84,4.84,0,0,0-.79.53,8.67,8.67,0,0,1,.36,1.38,14.11,14.11,0,0,1,.18,1.87c0,.74.06,1.71.07,2.89s0,2.69,0,4.51a19.2,19.2,0,0,1-.57,5,10.27,10.27,0,0,1-1.5,3.34,6.28,6.28,0,0,1-2,1.87,4.65,4.65,0,0,1-2.19.59,4.12,4.12,0,0,1-2.68-.8,4.5,4.5,0,0,1-1.44-2.57,20.14,20.14,0,0,1-.43-4.64l-.05-12.24a2,2,0,0,0-.57-1.53,2.07,2.07,0,0,0-1.48-.52,2.55,2.55,0,0,0-1.25.27c-.32.18-.61.36-.89.55a9.46,9.46,0,0,1,.49,2.36c.07.88.1,1.73.1,2.55v9c0,3.53.63,6,1.78,7.43s2.94,2.14,5.37,2.14a7.7,7.7,0,0,0,4.05-1.07,8.29,8.29,0,0,0,2.9-3,10.58,10.58,0,0,0,.7-1.6v.92a5.58,5.58,0,0,0,.91,3.48,3.17,3.17,0,0,0,2.64,1.15,3.08,3.08,0,0,0,2-.58,1.9,1.9,0,0,0,.71-1.51,2.27,2.27,0,0,0-.54-1.41A1.17,1.17,0,0,1,243.26,166Z" transform="translate(-38.43 -76.52)"/><path d="M262.65,146a5.65,5.65,0,0,0-3.78-1.23,5.53,5.53,0,0,0-4.41,2,8.67,8.67,0,0,0-1.64,3.21v-.22A6.07,6.07,0,0,0,252,146a3.07,3.07,0,0,0-2.64-1.23,3.11,3.11,0,0,0-2,.59,1.88,1.88,0,0,0-.72,1.51,2.29,2.29,0,0,0,.54,1.45,1.13,1.13,0,0,1,.59-.59,1.76,1.76,0,0,1,.59-.13,1,1,0,0,1,1,.52,4,4,0,0,1,.3,1.84v16.75a2,2,0,0,0,.64,1.57,2.09,2.09,0,0,0,1.45.57,2.93,2.93,0,0,0,1.34-.27,3,3,0,0,0,.8-.55,6.45,6.45,0,0,1-.34-1.36c-.08-.49-.14-1.1-.19-1.85s-.06-1.7-.06-2.89v-4.46a23.52,23.52,0,0,1,.68-6.3,7.32,7.32,0,0,1,1.8-3.39,3.38,3.38,0,0,1,2.34-1,2.67,2.67,0,0,1,2,.68,3,3,0,0,1,.68,2.14,5.69,5.69,0,0,1-.16,1.39,5.27,5.27,0,0,1-.7,1.53,2.05,2.05,0,0,0,1.59.45,2.6,2.6,0,0,0,1.87-1,3.69,3.69,0,0,0,.82-2.46A4.34,4.34,0,0,0,262.65,146Z" transform="translate(-38.43 -76.52)"/><path d="M226.74,118.9c1.19,1.72,2.48,3.39,3.73,5.08a1.85,1.85,0,0,0,.08-1.69,10.16,10.16,0,0,0-.83-1.84c-11.14-17.47-26.66-30-48.79-35-5.86-1.31-11.89-2-17.92,0,1.73.08,3.47.19,5.2.22A66.47,66.47,0,0,1,197.62,93,78.47,78.47,0,0,1,226.74,118.9Z" transform="translate(-38.43 -76.52)"/><path d="M227.65,89.26c1.78,1,3.66,1.89,5.49,2.83-11.87-13.51-55.86-19.4-69.78-9.32,3-.54,5.38-.91,7.76-1.42C191.16,77.07,210.08,79.2,227.65,89.26Z" transform="translate(-38.43 -76.52)"/><path d="M194.13,113.27c-1.13-11.71-18.58-25.48-30.78-25C178.09,92.11,188,100.74,194.13,113.27Z" transform="translate(-38.43 -76.52)"/><path d="M117.9,85.54c-22.13,4.94-37.65,17.52-48.8,35a10.12,10.12,0,0,0-.82,1.84,1.85,1.85,0,0,0,.08,1.69c1.24-1.69,2.54-3.36,3.72-5.08a78.51,78.51,0,0,1,29.13-25.91,66.42,66.42,0,0,1,29.4-7.33c1.74,0,3.47-.14,5.21-.22C129.79,83.49,123.75,84.24,117.9,85.54Z" transform="translate(-38.43 -76.52)"/><path d="M127.71,81.43c2.37.51,4.78.88,7.76,1.42-13.93-10.08-57.91-4.19-69.79,9.31,1.83-.93,3.71-1.8,5.49-2.82C88.75,79.28,107.67,77.14,127.71,81.43Z" transform="translate(-38.43 -76.52)"/><path d="M104.69,113.35c6.1-12.53,16-21.16,30.79-25C123.28,87.87,105.82,101.63,104.69,113.35Z" transform="translate(-38.43 -76.52)"/><path d="M147.5,97.81c.66-1.15,1.19-2.38,1.61-3.21,2.13,2.72,3.9,5.79,6.44,8,2.15,1.82,5.16,2.67,7.85,3.8.9.38,2.29.49,2.41-.93.05-.51-1.16-1.14-1.8-1.71,0,0-.12,0-.18,0-6.09-1.19-9.74-5-11.7-10.73a1.69,1.69,0,0,1,.7-2.38,13.79,13.79,0,0,0,5.31-8c.61-2.21-.08-3.95-2.12-4.78a14.94,14.94,0,0,0-12.67.28c-2.32,1.15-3.28,3.41-2.06,5.65a35.72,35.72,0,0,0,4.93,6.75,1.89,1.89,0,0,1,.59,2.24c-1.93,5.89-5.67,9.8-11.92,11-1,.19-2.07.41-1.85,1.7.25,1.48,1.51,1.18,2.48,1A17.5,17.5,0,0,0,147.5,97.81Z" transform="translate(-38.43 -76.52)"/></svg>